<svg height="36" viewBox="0 0 36 36" width="36" xmlns="http://www.w3.org/2000/svg"><path d="m17.9985267 2c-8.83415701 0-15.9985267 7.16338746-15.9985267 16.0004911 0 7.0690936 4.58405721 13.0655944 10.9420179 15.1813131.8005156.1473342 1.0922373-.3467264 1.0922373-.7710488 0-.3801222-.0137512-1.3859235-.021609-2.7207711-4.45047425.9665122-5.38948404-2.1451855-5.38948404-2.1451855-.72783081-1.8485528-1.77685012-2.3406489-1.77685012-2.3406489-1.45271494-.9920501.11000952-.9724055.11000952-.9724055 1.60594248.1129562 2.4506584 1.6491605 2.4506584 1.6491605 1.42717704 2.444765 3.74523464 1.7385432 4.65674204 1.3289542.1453697-1.0333037.5588877-1.7385432 1.0156236-2.1383099-3.552718-.4036957-7.2881304-1.7768502-7.2881304-7.9079162 0-1.746401.62371466-3.1755425 1.64719605-4.2933178-.16501428-.4046778-.71407963-2.0322293.15715645-4.23438408 0 0 1.3427054-.43021578 4.3993984 1.64032048 1.2759139-.3555665 2.6451395-.5323675 4.005525-.5392431 1.3594033.0068756 2.7276467.1836766 4.005525.5392431 3.0547286-2.07053626 4.3954695-1.64032048 4.3954695-1.64032048.8732005 2.20215478.3241352 3.82970628.1601032 4.23438408 1.0254458 1.1177753 1.6442493 2.5469168 1.6442493 4.2933178 0 6.1467817-3.7413057 7.4993094-7.3048282 7.8951472.573621.4940606 1.0853617 1.470395 1.0853617 2.9623991 0 2.1392922-.0196446 3.8650664-.0196446 4.3895761 0 .4282513.288775.9262408 1.1000952.7700666 6.3530495-2.1206299 10.9331778-8.1132018 10.9331778-15.1803309 0-8.83710364-7.1643697-16.0004911-16.0014733-16.0004911" fill="#182359" fill-rule="evenodd"/></svg>